HIERARCHY
ROOT joint_0
{
	OFFSET 0.000000 0.000000 0.000000
	CHANNELS 6 Xposition Yposition Zposition Zrotation Yrotation Xrotation 
	JOINT joint_1
	{
		OFFSET 1.363060 -1.794630 0.839290
		CHANNELS 3 Zrotation Yrotation Xrotation
		JOINT joint_2
		{
			OFFSET 2.448110 -6.726130 0.000000
			CHANNELS 3 Zrotation Yrotation Xrotation
			JOINT joint_3
			{
				OFFSET 2.562200 -7.039590 0.000000
				CHANNELS 3 Zrotation Yrotation Xrotation
				JOINT joint_4
				{
					OFFSET 0.157640 -0.433110 2.322550
					CHANNELS 3 Zrotation Yrotation Xrotation
					End Site
					{
						OFFSET 0.000000 0.000000 0.000000
					}
				}
			}
		}
	}
	JOINT joint_5
	{
		OFFSET -1.305520 -1.794630 0.839290
		CHANNELS 3 Zrotation Yrotation Xrotation
		JOINT joint_6
		{
			OFFSET -2.542530 -6.985550 0.000000
			CHANNELS 3 Zrotation Yrotation Xrotation
			JOINT joint_7
			{
				OFFSET -2.568260 -7.056230 0.000000
				CHANNELS 3 Zrotation Yrotation Xrotation
				JOINT joint_8
				{
					OFFSET -0.164730 -0.452590 2.363150
					CHANNELS 3 Zrotation Yrotation Xrotation
					End Site
					{
						OFFSET 0.000000 0.000000 0.000000
					}
				}
			}
		}
	}
	JOINT joint_9
	{
		OFFSET 0.028270 2.035590 -0.193380
		CHANNELS 3 Zrotation Yrotation Xrotation
		JOINT joint_10
		{
			OFFSET 0.056720 2.048850 -0.042750
			CHANNELS 3 Zrotation Yrotation Xrotation
			JOINT joint_11
			{
				OFFSET -0.054170 1.746240 0.172020
				CHANNELS 3 Zrotation Yrotation Xrotation
				JOINT joint_12
				{
					OFFSET 0.104070 1.761360 -0.123970
					CHANNELS 3 Zrotation Yrotation Xrotation
					End Site
					{
						OFFSET 0.000000 0.000000 0.000000
					}
				}
			}
			JOINT joint_13
			{
				OFFSET 3.362410 1.200890 -0.311210
				CHANNELS 3 Zrotation Yrotation Xrotation
				JOINT joint_14
				{
					OFFSET 4.983000 -0.000000 -0.000000
					CHANNELS 3 Zrotation Yrotation Xrotation
					JOINT joint_15
					{
						OFFSET 3.483560 -0.000000 -0.000000
						CHANNELS 3 Zrotation Yrotation Xrotation
						JOINT joint_16
						{
							OFFSET 0.000000 0.000000 0.000000
							CHANNELS 3 Zrotation Yrotation Xrotation
							End Site
							{
								OFFSET 0.000000 0.000000 0.000000
							}
						}
					}
				}
			}
			JOINT joint_17
			{
				OFFSET -3.136600 1.374050 -0.404650
				CHANNELS 3 Zrotation Yrotation Xrotation
				JOINT joint_18
				{
					OFFSET -5.241900 -0.000000 -0.000000
					CHANNELS 3 Zrotation Yrotation Xrotation
					JOINT joint_19
					{
						OFFSET -3.444170 -0.000000 -0.000000
						CHANNELS 3 Zrotation Yrotation Xrotation
						JOINT joint_20
						{
							OFFSET 0.000000 0.000000 0.000000
							CHANNELS 3 Zrotation Yrotation Xrotation
							End Site
							{
								OFFSET 0.000000 0.000000 0.000000
							}
						}
					}
				}
			}
		}
	}
}
MOTION
Frames: 7
Frame Time: 0.031667
0.383414 16.863363 -1.810240 -1.405944 0.763194 0.967095 -13.058346 3.277695 -25.899204 -0.426764 1.543524 1.362788 1.684476 -3.585695 -0.494054 1.126871 -5.187149 -20.389369 15.444302 6.519785 -4.143021 -0.762795 -5.938712 5.185848 8.164051 8.352394 -25.589812 -0.596422 5.054537 -12.393543 2.318129 -33.719869 -47.612947 3.953534 2.074513 -7.150724 11.459804 -20.019464 10.225967 3.905626 -8.311069 8.422026 -26.959565 -4.077563 1.156636 12.145275 -14.243268 -32.489649 6.721357 12.848054 21.019996 -9.004619 0.104308 0.056546 7.642890 7.140029 -30.512132 -24.785128 6.649696 -44.551612 -5.865132 -3.568025 8.136827 9.432035 -0.036592 -0.021285 
0.383318 16.859610 -1.817252 -1.379972 0.747692 0.969901 -23.527182 4.777885 -13.693772 -4.222144 4.543882 18.077940 -0.024473 0.074313 0.002186 0.940874 -5.889867 -17.691354 37.987110 -26.040704 9.134887 -1.769237 -0.271294 0.054967 0.466964 2.556393 -8.081326 -0.440002 -3.935082 11.410763 -12.170324 -11.813854 -29.922012 17.941508 -13.389905 7.496577 20.718323 -17.858212 13.164083 1.717825 -5.931865 8.218371 -30.239165 -16.418820 -16.107320 26.583049 -26.473524 -44.253486 25.735597 10.236127 22.976927 -9.597152 0.077341 0.043596 31.071313 -8.585924 -42.147198 -12.716280 10.516214 -15.313205 -26.691669 -17.239042 6.551393 10.119551 -0.067509 -0.049975 
0.359751 16.856756 -1.922252 -1.278687 2.231196 1.264987 -13.437697 -1.543179 -23.716682 -6.241987 -9.009409 16.277587 0.006542 0.215729 0.008201 0.998677 6.588945 17.304720 4.529614 0.461436 -1.915744 -6.778040 5.305174 22.941629 0.286027 2.834844 -17.874380 -1.030623 6.046973 -16.200950 -28.586650 13.584541 -43.907770 -5.275940 -11.834649 29.913419 10.859747 -3.629253 18.137305 0.379199 -3.682298 4.722326 -51.865283 2.997373 -1.019520 35.369615 -27.836695 -47.654083 0.059366 0.645134 0.383832 -10.295705 0.059160 0.032794 -29.386091 3.875695 -34.752863 -62.181853 24.766403 -52.448391 -4.257177 -16.152365 -3.033854 10.877542 -0.099530 -0.082188 
0.356616 16.846096 -1.948889 -0.875224 1.924792 0.723241 -24.099953 6.445587 -36.585350 32.636933 25.836833 23.292129 -0.412055 -5.067821 -1.796176 0.672734 5.427260 14.223914 15.018895 -23.599450 22.328905 1.764651 -0.247095 1.340727 -2.553125 -3.095026 9.617520 -1.266537 -6.150548 18.509527 -18.384798 -0.993781 -7.736388 4.331334 2.063663 10.897079 -2.908271 2.712804 -1.403295 -0.068283 -1.501135 2.378684 -6.751032 3.486169 5.863214 21.154687 -17.086961 -35.425404 -3.910477 -5.881776 1.471613 -10.774707 0.056513 0.054777 5.203241 -6.282499 -30.524758 -10.380260 -9.761182 -28.541972 11.844356 3.885310 11.025463 11.415151 -0.118863 -0.070219 
0.352688 16.855104 -1.909324 -1.206381 1.764283 0.913657 -24.370988 23.298652 -1.761245 -6.013680 -5.963988 2.884080 -1.918929 3.305314 0.063425 0.573820 5.386773 12.980250 8.763058 -1.631228 3.177811 -1.097390 1.476446 -1.143057 11.768286 -3.056693 10.099831 -1.378515 6.272653 -16.738484 -18.822884 4.454797 -39.456361 -10.728790 5.408600 11.729596 12.034233 -20.601008 16.158349 -0.373110 -1.166141 3.884915 39.655025 16.723195 17.640602 26.357772 -9.271427 -31.280191 12.308167 -10.552324 -27.049997 -11.012170 0.042666 0.058203 -16.615943 -16.785998 -29.898255 -28.393186 1.382577 -44.921791 -2.345418 -4.001995 -2.580878 11.737457 -0.144200 -0.080672 
0.353326 16.855556 -1.907733 -1.240121 1.724975 0.923689 -22.834645 -11.739339 -13.330981 3.057025 -0.003568 12.296457 1.598171 -4.070384 -1.427217 0.320371 3.963957 10.041102 12.879094 -3.020659 2.324502 18.457444 23.207547 -5.084226 -1.455428 1.934035 -0.851944 -0.874404 -5.115428 14.569347 -17.463721 -36.927116 -18.636783 -4.612616 0.131783 4.082577 -8.108624 -42.701794 32.801384 0.184980 -0.860094 4.309523 -6.033914 6.436048 3.454534 56.004825 2.386816 -54.030379 3.492262 14.984042 -23.778162 -11.196764 0.034502 0.070577 -2.140592 -5.426419 -11.519093 -8.363115 -33.436719 -71.287486 -10.142409 -15.773978 -2.061231 12.009520 -0.167539 -0.082225 
0.353497 16.856457 -1.906577 -1.280150 1.729442 0.936999 -42.834767 14.158637 -4.613112 3.674313 3.186912 16.634589 -0.074629 -6.172652 1.244790 0.289849 3.933366 9.429718 25.957034 5.542732 5.666698 2.029037 2.777899 4.929271 3.715303 1.213898 0.202798 -1.019334 -5.695933 16.291590 2.042148 -42.533613 -19.755202 16.259558 -24.697775 -9.886089 -26.864763 -2.943387 37.706205 0.308242 -0.797797 7.210667 -0.473071 0.303458 -0.296416 24.662292 24.095605 -66.857946 17.855454 3.445494 -19.183090 -11.491572 0.038149 0.081440 8.039341 -33.554479 -23.572566 -44.496362 -37.200234 -55.517797 -6.187866 -8.091926 1.128393 12.379224 -0.182096 -0.078839 
